<mxfile host="app.diagrams.net" modified="2021-02-17T11:47:26.183Z" agent="5.0 (Windows NT 10.0; Win64; x64) AppleWebKit/537.36 (KHTML, like Gecko) Chrome/88.0.4324.150 Safari/537.36" etag="fy7CPiYBKUvVukBD3qFd" version="14.0.4" type="github">
  <diagram id="kPOEPVqX2DJJR_kbKYEX" name="Page-1">
    <mxGraphModel dx="677" dy="363" grid="1" gridSize="10" guides="1" tooltips="1" connect="1" arrows="1" fold="1" page="1" pageScale="1" pageWidth="850" pageHeight="1100" math="0" shadow="0">
      <root>
        <mxCell id="0" />
        <mxCell id="1" parent="0" />
        <mxCell id="aevBtBsSCUQ3oCvWqCum-1" value="React" style="rounded=0;whiteSpace=wrap;html=1;" vertex="1" parent="1">
          <mxGeometry x="590" y="30" width="90" height="30" as="geometry" />
        </mxCell>
        <mxCell id="aevBtBsSCUQ3oCvWqCum-2" value="Unity" style="rounded=0;whiteSpace=wrap;html=1;" vertex="1" parent="1">
          <mxGeometry x="160" y="30" width="90" height="30" as="geometry" />
        </mxCell>
        <mxCell id="aevBtBsSCUQ3oCvWqCum-3" value="" style="endArrow=none;dashed=1;html=1;dashPattern=1 3;strokeWidth=2;entryX=0.457;entryY=1.09;entryDx=0;entryDy=0;entryPerimeter=0;" edge="1" parent="1" source="aevBtBsSCUQ3oCvWqCum-12" target="aevBtBsSCUQ3oCvWqCum-1">
          <mxGeometry width="50" height="50" relative="1" as="geometry">
            <mxPoint x="631" y="250" as="sourcePoint" />
            <mxPoint x="660" y="60" as="targetPoint" />
          </mxGeometry>
        </mxCell>
        <mxCell id="aevBtBsSCUQ3oCvWqCum-6" style="edgeStyle=orthogonalEdgeStyle;rounded=0;orthogonalLoop=1;jettySize=auto;html=1;entryX=0.983;entryY=0.471;entryDx=0;entryDy=0;entryPerimeter=0;" edge="1" parent="1" source="aevBtBsSCUQ3oCvWqCum-4" target="aevBtBsSCUQ3oCvWqCum-7">
          <mxGeometry relative="1" as="geometry">
            <mxPoint x="220" y="120" as="targetPoint" />
            <Array as="points">
              <mxPoint x="416" y="118" />
            </Array>
          </mxGeometry>
        </mxCell>
        <mxCell id="aevBtBsSCUQ3oCvWqCum-9" value="Get photos room 1" style="edgeLabel;html=1;align=center;verticalAlign=middle;resizable=0;points=[];" vertex="1" connectable="0" parent="aevBtBsSCUQ3oCvWqCum-6">
          <mxGeometry x="0.4499" y="-1" relative="1" as="geometry">
            <mxPoint as="offset" />
          </mxGeometry>
        </mxCell>
        <mxCell id="aevBtBsSCUQ3oCvWqCum-4" value="" style="rounded=0;whiteSpace=wrap;html=1;" vertex="1" parent="1">
          <mxGeometry x="626" y="90" width="10" height="60" as="geometry" />
        </mxCell>
        <mxCell id="aevBtBsSCUQ3oCvWqCum-8" value="" style="endArrow=none;dashed=1;html=1;dashPattern=1 3;strokeWidth=2;entryX=0.457;entryY=1.063;entryDx=0;entryDy=0;entryPerimeter=0;" edge="1" parent="1" target="aevBtBsSCUQ3oCvWqCum-2">
          <mxGeometry width="50" height="50" relative="1" as="geometry">
            <mxPoint x="201" y="190" as="sourcePoint" />
            <mxPoint x="220" y="70" as="targetPoint" />
          </mxGeometry>
        </mxCell>
        <mxCell id="aevBtBsSCUQ3oCvWqCum-10" style="edgeStyle=orthogonalEdgeStyle;rounded=0;orthogonalLoop=1;jettySize=auto;html=1;entryX=0.06;entryY=0.69;entryDx=0;entryDy=0;entryPerimeter=0;" edge="1" parent="1" source="aevBtBsSCUQ3oCvWqCum-7" target="aevBtBsSCUQ3oCvWqCum-4">
          <mxGeometry relative="1" as="geometry">
            <Array as="points">
              <mxPoint x="416" y="131" />
            </Array>
          </mxGeometry>
        </mxCell>
        <mxCell id="aevBtBsSCUQ3oCvWqCum-11" value="photos + dots position + type" style="edgeLabel;html=1;align=center;verticalAlign=middle;resizable=0;points=[];" vertex="1" connectable="0" parent="aevBtBsSCUQ3oCvWqCum-10">
          <mxGeometry x="-0.0537" y="-2" relative="1" as="geometry">
            <mxPoint as="offset" />
          </mxGeometry>
        </mxCell>
        <mxCell id="aevBtBsSCUQ3oCvWqCum-7" value="" style="rounded=0;whiteSpace=wrap;html=1;" vertex="1" parent="1">
          <mxGeometry x="196" y="90" width="10" height="60" as="geometry" />
        </mxCell>
        <mxCell id="aevBtBsSCUQ3oCvWqCum-14" style="edgeStyle=orthogonalEdgeStyle;rounded=0;orthogonalLoop=1;jettySize=auto;html=1;" edge="1" parent="1" source="aevBtBsSCUQ3oCvWqCum-12" target="aevBtBsSCUQ3oCvWqCum-15">
          <mxGeometry relative="1" as="geometry">
            <mxPoint x="210" y="210" as="targetPoint" />
            <Array as="points">
              <mxPoint x="270" y="210" />
              <mxPoint x="270" y="210" />
            </Array>
          </mxGeometry>
        </mxCell>
        <mxCell id="aevBtBsSCUQ3oCvWqCum-16" value="POST change type : selection id, item id" style="edgeLabel;html=1;align=center;verticalAlign=middle;resizable=0;points=[];" vertex="1" connectable="0" parent="aevBtBsSCUQ3oCvWqCum-14">
          <mxGeometry x="0.817" y="1" relative="1" as="geometry">
            <mxPoint x="125.43" y="9" as="offset" />
          </mxGeometry>
        </mxCell>
        <mxCell id="aevBtBsSCUQ3oCvWqCum-12" value="" style="rounded=0;whiteSpace=wrap;html=1;" vertex="1" parent="1">
          <mxGeometry x="626" y="180" width="10" height="60" as="geometry" />
        </mxCell>
        <mxCell id="aevBtBsSCUQ3oCvWqCum-13" value="" style="endArrow=none;dashed=1;html=1;dashPattern=1 3;strokeWidth=2;entryX=0.457;entryY=1.09;entryDx=0;entryDy=0;entryPerimeter=0;" edge="1" parent="1" target="aevBtBsSCUQ3oCvWqCum-12">
          <mxGeometry width="50" height="50" relative="1" as="geometry">
            <mxPoint x="631" y="250" as="sourcePoint" />
            <mxPoint x="631.1300000000001" y="62.69999999999999" as="targetPoint" />
          </mxGeometry>
        </mxCell>
        <mxCell id="aevBtBsSCUQ3oCvWqCum-19" style="edgeStyle=orthogonalEdgeStyle;rounded=0;orthogonalLoop=1;jettySize=auto;html=1;" edge="1" parent="1" source="aevBtBsSCUQ3oCvWqCum-15" target="aevBtBsSCUQ3oCvWqCum-12">
          <mxGeometry relative="1" as="geometry">
            <Array as="points">
              <mxPoint x="416" y="240" />
              <mxPoint x="416" y="230" />
            </Array>
          </mxGeometry>
        </mxCell>
        <mxCell id="aevBtBsSCUQ3oCvWqCum-20" value="get new image" style="edgeLabel;html=1;align=center;verticalAlign=middle;resizable=0;points=[];" vertex="1" connectable="0" parent="aevBtBsSCUQ3oCvWqCum-19">
          <mxGeometry x="-0.1878" y="1" relative="1" as="geometry">
            <mxPoint as="offset" />
          </mxGeometry>
        </mxCell>
        <mxCell id="aevBtBsSCUQ3oCvWqCum-15" value="" style="rounded=0;whiteSpace=wrap;html=1;" vertex="1" parent="1">
          <mxGeometry x="196" y="190" width="10" height="60" as="geometry" />
        </mxCell>
        <mxCell id="aevBtBsSCUQ3oCvWqCum-18" value="harcoded db with materials, images, items , images prices and base cost" style="rounded=0;whiteSpace=wrap;html=1;" vertex="1" parent="1">
          <mxGeometry x="720" y="90" width="120" height="60" as="geometry" />
        </mxCell>
      </root>
    </mxGraphModel>
  </diagram>
</mxfile>
